<?xml version="1.0" encoding="utf-8" ?>
<svg baseProfile="full" height="128px" version="1.1" width="128px" xmlns="http://www.w3.org/2000/svg" xmlns:ev="http://www.w3.org/2001/xml-events" xmlns:xlink="http://www.w3.org/1999/xlink"><defs /><rect fill="#CD845B" height="16px" width="16px" x="16" y="0" /><rect fill="#CD845B" height="16px" width="16px" x="32" y="0" /><rect fill="#CD845B" height="16px" width="16px" x="48" y="0" /><rect fill="#CD845B" height="16px" width="16px" x="64" y="0" /><rect fill="#CD845B" height="16px" width="16px" x="96" y="0" /><rect fill="#CD845B" height="16px" width="16px" x="112" y="0" /><rect fill="#3B8772" height="16px" width="16px" x="0" y="16" /><rect fill="#3B8772" height="16px" width="16px" x="16" y="16" /><rect fill="#CD845B" height="16px" width="16px" x="48" y="16" /><rect fill="#CD845B" height="16px" width="16px" x="64" y="16" /><rect fill="#CD845B" height="16px" width="16px" x="80" y="16" /><rect fill="#CD845B" height="16px" width="16px" x="96" y="16" /><rect fill="#3B8772" height="16px" width="16px" x="0" y="32" /><rect fill="#3B8772" height="16px" width="16px" x="16" y="32" /><rect fill="#3B8772" height="16px" width="16px" x="32" y="32" /><rect fill="#CD845B" height="16px" width="16px" x="48" y="32" /><rect fill="#CD845B" height="16px" width="16px" x="80" y="32" /><rect fill="#CDB95B" height="16px" width="16px" x="112" y="32" /><rect fill="#3B8772" height="16px" width="16px" x="0" y="48" /><rect fill="#3B8772" height="16px" width="16px" x="32" y="48" /><rect fill="#CD845B" height="16px" width="16px" x="64" y="48" /><rect fill="#CDB95B" height="16px" width="16px" x="80" y="48" /><rect fill="#CDB95B" height="16px" width="16px" x="96" y="48" /><rect fill="#CDB95B" height="16px" width="16px" x="112" y="48" /><rect fill="#3B8772" height="16px" width="16px" x="16" y="64" /><rect fill="#3B8772" height="16px" width="16px" x="32" y="64" /><rect fill="#3B8772" height="16px" width="16px" x="48" y="64" /><rect fill="#57488E" height="16px" width="16px" x="64" y="64" /><rect fill="#CDB95B" height="16px" width="16px" x="96" y="64" /><rect fill="#CDB95B" height="16px" width="16px" x="112" y="64" /><rect fill="#3B8772" height="16px" width="16px" x="0" y="80" /><rect fill="#3B8772" height="16px" width="16px" x="16" y="80" /><rect fill="#57488E" height="16px" width="16px" x="48" y="80" /><rect fill="#57488E" height="16px" width="16px" x="80" y="80" /><rect fill="#CDB95B" height="16px" width="16px" x="96" y="80" /><rect fill="#3B8772" height="16px" width="16px" x="16" y="96" /><rect fill="#57488E" height="16px" width="16px" x="32" y="96" /><rect fill="#57488E" height="16px" width="16px" x="48" y="96" /><rect fill="#57488E" height="16px" width="16px" x="64" y="96" /><rect fill="#57488E" height="16px" width="16px" x="96" y="96" /><rect fill="#CDB95B" height="16px" width="16px" x="112" y="96" /><rect fill="#3B8772" height="16px" width="16px" x="0" y="112" /><rect fill="#57488E" height="16px" width="16px" x="32" y="112" /><rect fill="#57488E" height="16px" width="16px" x="64" y="112" /><rect fill="#57488E" height="16px" width="16px" x="80" y="112" /><rect fill="#57488E" height="16px" width="16px" x="112" y="112" /></svg>